<svg width="417" height="423" viewBox="0 0 417 423" fill="none" xmlns="http://www.w3.org/2000/svg">
<path d="M166.5 413.475C235 414.475 323.5 304 354 279C382 251.638 382 200.266 378.5 178C358 30 248.999 7.4966 191.5 7.5C129.836 7.50364 7.5 54.5 7.5 189.976C7.5 314.5 162.5 344.5 187.5 344.5C187.5 362.5 184.5 389.975 166.5 413.475Z" fill="#93CB6D"/>
<path d="M303.001 260C282.001 281.5 290.001 312 298.501 334C304.502 340 315 347.172 331.501 347.5C411.901 349.1 414.001 256.5 405.001 210C400.001 230.5 331.501 230.821 303.001 260Z" fill="#488F45"/>
<path d="M122.5 222.5C145.5 258.5 214.5 268.5 258.5 222.5" stroke="black" stroke-width="15" stroke-linecap="round"/>
<path d="M354 279C312.5 348 163.5 425 166.5 413.475C170.5 405.5 189 355.5 187.5 344.5C180 333.5 7.5 322.5 7.5 189.976C7.5 54.5 129.836 7.50364 191.5 7.5C248.999 7.4966 358 31.979 378.5 179.979" stroke="black" stroke-width="15" stroke-linecap="round"/>
<path d="M98.5 157.5C98.5 142 107.5 130.5 121.5 130.5C135.5 130.5 148.5 141 148.5 157.5" stroke="black" stroke-width="15" stroke-linecap="round"/>
<path d="M234 157.5C234 142 243 130.5 257 130.5C271 130.5 284 141 284 157.5" stroke="black" stroke-width="15" stroke-linecap="round"/>
<path d="M298.501 334C290.001 312 282.001 281.5 303.001 260C331.501 230.821 400.001 230.5 405.001 210C414.001 256.5 411.901 349.1 331.501 347.5" stroke="black" stroke-width="15" stroke-linecap="round"/>
<circle cx="405" cy="210" r="7.5" fill="black"/>
</svg>
